# xmcd CD database file
# Copyright (C) 1997 Ti Kan
# 
# Track frame offsets:
#     150
#     21765
#     39825
#     58442
#     73380
#     91622
#     111295
#     130717
#     143987
#     157562
#     179037
#     195490
# 
# Disc length: 2828 seconds
# 
# Revision: 1
# Processed by: cddbd v1.4b41PL1 Copyright (c) Steve Scherf et al.
# Submitted via: DiscPlay 4.0.4
# 
DISCID=a20b0a0c
DTITLE=South By Southwest - Honky Tonk Road
DYEAR=1900
DGENRE=
TTITLE0=Ballad of Johnny and Mary, The
TTITLE1=Honky Tonk Road
TTITLE2=Santa Fe Moon
TTITLE3=Acadian Angel
TTITLE4=I Taught Her Everything She Knows
TTITLE5=New Mexico Rain
TTITLE6=Texas Cooking
TTITLE7=Love Comes Easy
TTITLE8=Two Miles Out Of Tucumcari
TTITLE9=Roses Won't Stop Her, The
TTITLE10=What Fools Say
TTITLE11=Midnight Mandolin
EXTD=
EXTT0=
EXTT1=
EXTT2=
EXTT3=
EXTT4=
EXTT5=
EXTT6=Written by Guy Clark\n
EXTT7=
EXTT8=
EXTT9=
EXTT10=
EXTT11=
PLAYORDER=
